<!DOCTYPE svg PUBLIC "-//W3C//DTD SVG 1.1//EN" "http://www.w3.org/Graphics/SVG/1.1/DTD/svg11.dtd">
<!-- Uploaded to: SVG Repo, www.svgrepo.com, Transformed by: SVG Repo Mixer Tools -->
<svg version="1.1" id="Layer_1" xmlns="http://www.w3.org/2000/svg" xmlns:xlink="http://www.w3.org/1999/xlink" viewBox="0 0 389.579 389.579" xml:space="preserve" width="800px" height="800px" fill="#000000">
<g id="SVGRepo_bgCarrier" stroke-width="0"/>
<g id="SVGRepo_tracerCarrier" stroke-linecap="round" stroke-linejoin="round"/>
<g id="SVGRepo_iconCarrier"> <path style="fill:#ff4d4d;" d="M367.968,160.689v55.273H248.76V60.422h40.081c4.848,0,8.663,2.715,10.861,7.046l26.57,61.802 c5.43,12.477,17.325,20.04,30.384,20.04C363.119,149.311,367.968,154.741,367.968,160.689z"/> <path style="fill:#FFFFFF;" d="M21.657,296.188h12.477c4.848-19.523,22.238-34.133,43.378-34.133s38.465,14.61,43.378,34.133 h136.598c4.848-19.523,22.238-34.133,43.378-34.133s38.465,14.61,43.378,34.133h24.372V238.2H21.657V296.188z"/> <rect x="21.657" y="60.422" style="fill:#ffffff;" width="205.964" height="156.057"/> <g> <path style="fill:#ff4d4d;" d="M77.511,283.194c-12.477,0-22.756,10.279-22.756,22.756c0,12.477,10.279,22.756,22.756,22.756 s22.756-10.279,22.756-22.756C100.267,293.473,89.988,283.194,77.511,283.194z"/> <path style="fill:#ff4d4d;" d="M300.8,283.194c-12.477,0-22.756,10.279-22.756,22.756c0,12.477,10.279,22.756,22.756,22.756 s22.756-10.279,22.756-22.756C323.556,293.473,313.277,283.194,300.8,283.194z"/> </g> <g> <path style="fill:#000000;" d="M357.172,127.59c-4.848,0-8.663-2.715-10.861-7.046l-26.57-61.802 c-5.43-12.477-17.325-20.04-30.319-20.04H10.861C4.913,38.701,0,43.549,0,49.561v257.422c0,5.947,4.848,10.861,10.861,10.861 h23.273c4.848,18.941,22.238,33.034,42.796,33.034s37.947-14.093,42.796-33.034h137.632c4.848,18.941,22.238,33.034,42.796,33.034 c20.622,0,37.947-14.093,42.796-33.034h35.749c5.948,0,10.861-4.848,10.861-10.861V161.206 C390.206,142.782,375.014,127.59,357.172,127.59z M323.556,306.467c0,12.477-10.279,22.756-22.756,22.756 c-12.477,0-22.756-10.279-22.756-22.756c0-12.477,10.279-22.756,22.756-22.756C313.277,283.194,323.556,293.473,323.556,306.467z M100.267,306.467c0,12.477-10.279,22.756-22.756,22.756s-22.756-10.279-22.756-22.756c0-12.477,10.279-22.756,22.756-22.756 C89.988,283.194,100.267,293.473,100.267,306.467z M21.657,60.422H227.62v156.057H21.657V60.422z M249.277,60.422h39.564 c4.848,0,8.663,2.715,10.861,7.046l26.57,61.802c5.43,12.477,17.325,20.04,30.319,20.04c6.529,0,11.378,5.43,11.378,11.378v55.273 H248.76V60.422H249.277z M368.549,296.188h-24.372c-4.848-19.523-22.238-34.133-43.378-34.133s-38.465,14.61-43.378,34.133H120.307 c-4.848-19.523-22.238-34.133-43.378-34.133s-38.465,14.61-43.378,34.133H21.657V238.2h346.828v57.988H368.549z"/> <path style="fill:#000000;" d="M158.772,77.23c-4.331-4.331-10.861-4.331-15.192,0c-4.331,4.331-4.331,10.861,0,15.192l4.331,4.331 H92.638c-5.947,0-10.861,4.848-10.861,10.861c0,6.012,4.848,10.861,10.861,10.861h55.273l-4.331,4.331 c-4.331,4.331-4.331,10.861,0,15.192c4.331,4.331,10.861,4.331,15.192,0l22.756-22.756c4.331-4.331,4.331-10.861,0-15.192 L158.772,77.23z"/> <path style="fill:#000000;" d="M156.057,158.491h-54.691l4.331-4.331c4.331-4.331,4.331-10.861,0-15.192 c-4.331-4.331-10.861-4.331-15.192,0l-22.756,22.82c-4.331,4.331-4.331,10.861,0,15.192l22.756,22.756 c4.331,4.331,10.861,4.331,15.192,0c4.331-4.331,4.331-10.861,0-15.192l-4.331-4.331h55.273c5.947,0,10.861-4.848,10.861-10.861 C166.917,163.404,162.586,158.491,156.057,158.491z"/> <path style="fill:#000000;" d="M296.469,160.107h-19.523c-5.947,0-10.861,4.848-10.861,10.861c0,5.947,4.848,10.861,10.861,10.861 h19.523c5.947,0,10.861-4.848,10.861-10.861C307.265,165.02,302.416,160.107,296.469,160.107z"/> </g> </g>
</svg>